<svg width="174" height="50" viewBox="0 0 174 50" fill="none" xmlns="http://www.w3.org/2000/svg">
<path fill-rule="evenodd" clip-rule="evenodd" d="M93.8154 15.9834H99.9988V37.4438H93.8154V15.9834Z" fill="white"/>
<path d="M89.8315 24.7396C89.1647 23.5209 88.2114 22.4792 87.0617 21.7084C88.4832 20.1021 89.3214 17.9688 89.219 15.6334C89.01 11.0021 85.0383 7.42712 80.3893 7.42712H67.5V37.4417H82.2476C87.0116 37.4417 90.8746 33.5938 90.8746 28.8417C90.8746 27.3563 90.4983 25.9605 89.8315 24.7396ZM81.2881 32.348H73.6812V24.9813H81.2442C83.2301 24.9813 84.9107 26.5542 84.9107 28.6667C84.9107 30.7521 83.2343 32.348 81.2881 32.348ZM79.6723 19.8875H73.6812V12.523H79.6263C81.6142 12.523 83.2949 14.0938 83.2949 16.2063C83.2907 18.2896 81.6142 19.8875 79.6723 19.8875Z" fill="white"/>
<path d="M173.145 8.31677H166.032L160.475 17.1939L154.921 8.31677H147.806L156.92 22.8793L147.806 37.4439H154.921L160.475 28.5668L166.032 37.4439H173.145L164.033 22.8793L173.145 8.31677Z" fill="white"/>
<path d="M122.051 25.5063V37.4418H115.87V24.4376C115.87 22.5459 114.304 21.0188 112.389 21.073C110.545 21.1293 109.122 22.7355 109.122 24.5772V37.4376H102.938V15.9772H109.122V17.0001C110.514 16.3438 112.065 15.9772 113.706 15.9772C114.528 15.9772 115.328 16.0688 116.097 16.2438C119.524 17.0209 121.944 20.0709 122.032 23.5709C122.045 24.2001 122.051 24.8501 122.051 25.5063Z" fill="white"/>
<path fill-rule="evenodd" clip-rule="evenodd" d="M93.8154 7.42712H99.9988V13.5896H93.8154V7.42712Z" fill="white"/>
<path d="M146.15 15.9834H135.487C135.452 15.9834 135.418 15.9792 135.381 15.9792C129.436 15.9792 124.615 20.7855 124.615 26.7126C124.615 32.6105 129.388 37.3938 135.289 37.4376C135.316 37.4438 135.347 37.4438 135.381 37.4438C137.676 37.4438 139.967 38.1147 139.967 40.1042C139.967 42.123 137.891 43.8376 135.381 43.8376C132.849 43.8376 130.797 41.7918 130.797 39.2688H124.613C124.613 45.1938 129.436 50.0001 135.379 50.0001C141.328 50.0001 146.144 45.1938 146.144 39.2688C146.144 39.2688 146.263 36.0626 143.535 33.7167C145.166 31.8397 146.146 29.3959 146.146 26.7126C146.146 24.6438 145.561 22.7147 144.543 21.0772H146.15V15.9834ZM135.381 31.2813C132.849 31.2813 130.797 29.2355 130.797 26.7126C130.797 24.1897 132.849 22.1438 135.381 22.1438C137.912 22.1438 139.967 24.1897 139.967 26.7126C139.967 29.2355 137.912 31.2813 135.381 31.2813Z" fill="white"/>
<path d="M57.3551 0C50.7412 0 44.2025 1.66667 38.4414 4.82292C35.356 6.5125 32.5068 8.60833 29.9754 11.0563C29.3796 11.6292 28.7964 12.2292 28.2383 12.8417C26.3716 14.8917 24.716 17.1417 23.3259 19.5271C22.8326 20.3833 22.2849 21.2188 21.6996 22.0167C21.6222 22.1208 21.5491 22.225 21.4655 22.3271C16.3461 29.0792 8.54693 32.95 0.0683594 32.95V45.425C6.68231 45.425 13.221 43.7583 18.9821 40.6042C22.0612 38.9188 24.9104 36.8188 27.4481 34.3708C28.0439 33.7958 28.6271 33.1958 29.1873 32.5854C31.0561 30.5333 32.7054 28.2875 34.0955 25.9L34.1875 25.7458C34.6578 24.9417 35.1762 24.1583 35.7218 23.4125C35.7992 23.3104 35.8765 23.2042 35.958 23.0958C41.0753 16.3458 48.8766 12.4729 57.3551 12.4729V0Z" fill="#2954FE"/>
<path d="M57.3551 32.9541C48.8766 32.9541 41.0753 29.0812 35.9539 22.3291C35.8786 22.2271 35.7992 22.125 35.7218 22.0146C35.1386 21.2229 34.5909 20.3854 34.0976 19.5271C32.7075 17.1437 31.054 14.8958 29.1852 12.8437C28.6271 12.2354 28.0439 11.6354 27.4481 11.0604C24.9167 8.61248 22.0696 6.51456 18.9821 4.82706C13.221 1.67289 6.68231 0.00622559 0.0683594 0.00622559V12.4812C8.54693 12.4812 16.3482 16.3521 21.4696 23.1041C21.5491 23.2062 21.6243 23.3125 21.7017 23.4146C22.2514 24.1625 22.7699 24.9479 23.2339 25.7437L23.3322 25.9062C24.7202 28.2875 26.3716 30.5333 28.2383 32.5875C28.7943 33.1958 29.3796 33.7958 29.9754 34.3708C32.511 36.8187 35.3602 38.9187 38.4414 40.6041C44.2025 43.7583 50.7412 45.425 57.3551 45.425V32.9541Z" fill="#2954FE"/>
</svg>
