<svg width="166" height="50" viewBox="0 0 166 50" fill="none" xmlns="http://www.w3.org/2000/svg">
<g clip-path="url(#clip0_250_4416)">
<mask id="mask0_250_4416" style="mask-type:luminance" maskUnits="userSpaceOnUse" x="0" y="0" width="166" height="50">
<path d="M165.444 0H0.283203V49.8116H165.444V0Z" fill="white"/>
</mask>
<g mask="url(#mask0_250_4416)">
<path d="M65.0194 24.1704C66.2617 23.4648 67.2571 22.5863 67.9817 21.5504C68.8075 20.371 69.2268 19.0238 69.2268 17.5487C69.2268 14.7869 68.1942 12.6313 66.1597 11.1405C64.1494 9.66712 61.3833 8.9209 57.9359 8.9209H45.4697V40.9115H58.4339C62.0646 40.9115 64.9717 40.0673 67.0736 38.4012C69.1923 36.7212 70.2678 34.3683 70.2678 31.4069C70.2678 29.604 69.762 28.0528 68.7659 26.7973C67.872 25.6749 66.6136 24.7921 65.0201 24.1704H65.0194ZM52.2159 14.6866H57.3936C59.0175 14.6866 60.2436 15.0013 61.04 15.6204C61.8268 16.2318 62.2091 17.0351 62.2091 18.0753C62.2091 19.1154 61.8268 19.9594 61.04 20.5733C60.2436 21.1924 59.0175 21.5072 57.3936 21.5072H52.2159V14.6866ZM61.9636 34.0615C61.0659 34.7809 59.6955 35.1448 57.891 35.1448H52.2159V27.3161H57.891C59.6946 27.3161 61.0668 27.668 61.9678 28.3589C62.861 29.048 63.2952 29.9576 63.2952 31.1431C63.2952 32.3899 62.8594 33.3444 61.9636 34.0622V34.0615Z" fill="white"/>
<path d="M79.3811 16.9897H72.5898V40.9102H79.3811V16.9897Z" fill="white"/>
<path d="M146.457 20.587C145.382 19.3073 144.035 18.3042 142.453 17.6047C140.872 16.9061 139.094 16.5498 137.171 16.5498C134.814 16.5498 132.688 17.085 130.849 18.1399C129.007 19.1983 127.545 20.6683 126.502 22.5118C125.459 24.3535 124.931 26.491 124.931 28.8628C124.931 31.2346 125.444 33.513 126.454 35.3833C127.468 37.2597 128.925 38.7314 130.784 39.7614C132.639 40.7849 134.819 41.3046 137.262 41.3046C140.261 41.3046 142.806 40.5507 144.83 39.0626C146.778 37.6307 148.119 35.6107 148.849 33.0823H142.012C141.652 33.9426 141.145 34.6752 140.42 35.1914C139.562 35.8001 138.454 36.1088 137.126 36.1088C135.975 36.1088 134.988 35.8288 134.193 35.2772C133.395 34.7252 132.786 33.9101 132.385 32.8507C132.145 32.2212 131.975 31.4975 131.874 30.6925H148.968L149.002 30.4798C149.307 28.5507 149.23 26.7227 148.77 25.047C148.309 23.3669 147.531 21.8667 146.457 20.587ZM131.982 26.2636C132.087 25.7768 132.228 25.2701 132.407 24.8084C132.824 23.7353 133.425 22.9095 134.196 22.3578C134.965 21.8062 135.92 21.5278 137.037 21.5278C138.437 21.5278 139.586 21.9817 140.453 22.8749C141.274 23.7249 141.74 24.8862 141.839 26.2636H131.983H131.982Z" fill="white"/>
<path d="M79.5201 8.92004H72.4453V14.6857H79.5201V8.92004Z" fill="white"/>
<path d="M116.712 19.7033C115.909 18.7383 114.967 17.9904 113.905 17.4733C112.638 16.8602 111.155 16.5498 109.497 16.5498C107.468 16.5498 105.648 17.0504 104.092 18.0362C102.537 19.0211 101.304 20.4132 100.428 22.1711C99.5558 23.9246 99.1123 25.9834 99.1123 28.293C99.1123 30.6025 99.5784 32.5404 100.498 34.3059C101.42 36.0778 102.698 37.4888 104.296 38.5023C105.897 39.5181 107.724 40.0336 109.725 40.0336C111.235 40.0336 112.615 39.7068 113.824 39.0607C114.781 38.5497 115.583 37.8736 116.215 37.0478V39.6523C116.215 41.2665 115.79 42.5059 114.956 43.3314C114.119 44.1572 112.846 44.5739 111.172 44.5739C109.73 44.5739 108.595 44.2472 107.801 43.6014C107.152 43.073 106.585 42.3794 106.453 40.9114H99.9052C99.9659 42.9659 100.569 44.3501 101.421 45.5633C102.377 46.9226 103.72 47.9852 105.418 48.7194C107.1 49.4449 109.052 49.813 111.218 49.813C114.854 49.813 117.749 48.8991 119.82 47.0988C121.904 45.2881 122.96 42.753 122.96 39.5649V16.9891H116.712V19.7033ZM115.516 31.4707C115.086 32.3594 114.478 33.0565 113.707 33.5391C112.938 34.0214 112.009 34.2672 110.946 34.2672C109.408 34.2672 108.213 33.7439 107.29 32.6665C106.37 31.5952 105.904 30.1235 105.904 28.2921C105.904 26.4607 106.37 24.9891 107.29 23.916C108.201 22.8533 109.431 22.3155 110.946 22.3155C112.459 22.3155 113.797 22.8611 114.738 23.9402C115.687 25.028 116.169 26.5075 116.169 28.3345C116.169 29.5183 115.949 30.5723 115.516 31.4698V31.4707Z" fill="white"/>
<path d="M165.445 22.7108V16.9901H160.543V8.92004H153.797V16.9901H149.61V22.7108H153.797V32.0753C153.797 37.2816 154.823 41.1078 161.215 40.9894L165.228 40.9107V35.5468H163.237C160.396 35.5468 160.554 33.8903 160.554 30.8137L160.543 22.7108H165.444H165.445Z" fill="white"/>
<path d="M97.4628 22.7108V16.9901H92.5608V8.92004H85.8147V16.9901H81.6279V22.7108H85.8147V32.0753C85.8147 37.2816 86.8402 41.1078 93.2328 40.9894L97.2457 40.9107V35.5468H95.2544C92.4131 35.5468 92.5712 33.8903 92.5712 30.8137L92.5602 22.7108H97.4618H97.4628Z" fill="white"/>
<path d="M17.2151 14.6863H27.4018L37.8231 25.0408C38.5008 25.7144 38.5044 26.8099 37.8299 27.487L24.4654 40.9188H13.9717L17.1442 37.8346L28.7923 26.26L17.292 14.6854" fill="white"/>
<path d="M21.4017 26.2341H11.2149L0.793803 15.8796C0.115895 15.206 0.112436 14.1104 0.786887 13.4334L14.1513 0.000610352H24.6451L21.4726 3.08492L9.82449 14.6595L21.3247 26.2341" fill="white"/>
</g>
</g>
<defs>
<clipPath id="clip0_250_4416">
<rect width="165.161" height="50" fill="white" transform="translate(0.283203)"/>
</clipPath>
</defs>
</svg>
