<svg width="208" height="60" viewBox="0 0 208 60" fill="none" xmlns="http://www.w3.org/2000/svg">
<path d="M38.7684 11.1923C35.7972 8.74035 31.7299 7.52881 26.5376 7.52881H13.6146V9.34611H26.3069C30.7203 9.34611 34.7011 10.2403 37.153 12.375C39.6049 14.5096 41.4223 17.625 41.4223 21.4903C41.4223 25.2403 39.8069 27.9807 37.2973 30.0865C34.7876 32.1923 30.2299 33.1153 25.7011 33.1153H11.1338V34.9327H25.8165C31.2684 34.9327 35.5376 33.75 38.6242 31.3846C41.6819 29.0192 43.2396 25.673 43.2396 21.375C43.2396 16.9903 41.7396 13.6153 38.7684 11.1923Z" fill="white"/>
<path d="M37.672 13.7885C35.8258 12.375 33.72 11.25 27.72 11.25H17.7393V13.0096C17.7393 13.0096 22.2104 12.9519 27.4893 13.0096C32.595 13.0673 34.47 13.6442 36.2008 14.9135C38.3931 16.5288 39.7777 18.5481 39.7777 21.3462C39.7777 24.0577 38.3931 25.9615 36.1719 27.6058C33.9219 29.2788 30.4604 29.2788 29.0469 29.3365C28.5277 29.3365 21.6335 29.3365 21.6335 29.3365V31.0961C21.6335 31.0961 25.0373 31.1538 27.1719 31.0961C32.0181 30.9808 34.9027 30.6923 37.5854 28.7019C40.095 26.8269 41.422 24.375 41.422 21.2596C41.422 17.1635 39.345 15.1154 37.672 13.7885Z" fill="white"/>
<path d="M36.7782 16.1249C35.3936 15.2595 34.182 14.6826 28.4416 14.6826H21.2589V15.8365H28.2397C33.3166 15.8365 35.2205 16.7307 35.8262 17.1057C36.9801 17.798 38.4801 18.9518 38.4801 21.2595C38.4801 22.7307 37.6147 24.6057 36.3166 25.3269C35.1339 25.9903 32.9705 26.5961 29.1916 26.5961H5.76855V27.7499H29.2493C33.8359 27.7499 35.3936 27.2307 37.0089 26.3365C38.6243 25.4422 39.7205 23.5961 39.7205 21.2595C39.7205 18.6057 38.2493 17.048 36.7782 16.1249Z" fill="white"/>
<path d="M41.3358 28.9038C38.3646 26.4519 34.2973 25.2404 29.105 25.2404H20.4512V27.0577H28.8454C33.2589 27.0577 37.2396 27.9807 39.6916 30.0865C42.1435 32.1923 43.9896 35.3365 43.9896 39.2019C43.9896 42.9519 42.4031 45.6923 39.8646 47.7981C37.3262 49.9038 32.7973 50.8269 28.2685 50.8269H13.7012V52.6442H28.3839C33.8358 52.6442 38.105 51.4615 41.1916 49.0961C44.2781 46.7307 45.8069 43.3846 45.8069 39.0865C45.7781 34.7307 44.3069 31.3557 41.3358 28.9038Z" fill="white"/>
<path d="M40.2401 31.5C38.3939 30.1154 36.2882 28.9615 30.2882 28.9615H16.7305V30.7212C16.7305 30.7212 24.7785 30.6635 30.0574 30.7212C35.1632 30.7789 37.0382 31.3558 38.7689 32.625C40.9612 34.2404 42.3459 36.2596 42.3459 39.0577C42.3459 41.7692 40.9612 43.6731 38.7401 45.3173C36.4901 46.9904 33.0285 46.9904 31.6151 47.0481C31.0959 47.0481 24.2016 47.0481 24.2016 47.0481V48.8077C24.2016 48.8077 27.6343 48.8654 29.7401 48.8077C34.5862 48.6923 37.4709 48.4039 40.1535 46.4135C42.6632 44.5385 43.9901 42.0866 43.9901 38.9712C43.9901 34.9039 41.942 32.8269 40.2401 31.5Z" fill="white"/>
<path d="M19.6152 37.4999H32.3364V36.5192H19.6152V37.4999Z" fill="white"/>
<path d="M24.8652 40.9327H32.2499V40.0962H24.8652V40.9327Z" fill="white"/>
<path d="M13.7012 37.4999H17.4512V36.5192H13.7012V37.4999Z" fill="white"/>
<path d="M11.3359 40.9904H22.7879V40.0096H11.3359V40.9904Z" fill="white"/>
<path d="M14.1631 15.7501H18.6342V14.9424H14.1631V15.7501Z" fill="white"/>
<path d="M11.0762 22.3269H21.2589V21.4038H11.0762V22.3269Z" fill="white"/>
<path d="M11.3359 48.6923H22.0956V47.5385H11.3359V48.6923Z" fill="white"/>
<path d="M8.68262 52.5288H11.3653V50.8269H8.68262V52.5288Z" fill="white"/>
<path d="M15.375 19.4422H32.2788V18.5192H15.375V19.4422Z" fill="white"/>
<path d="M23.8262 22.3269H31.9608V21.4038H23.8262V22.3269Z" fill="white"/>
<path d="M39.3456 34.0097C37.9609 33.1731 36.7494 32.5962 31.009 32.5962H21.8936V33.7212H30.8359C35.9129 33.7212 37.8456 34.5866 38.4225 34.9327C39.5475 35.5962 41.0763 36.6923 41.0763 38.9423C41.0763 40.3847 40.2109 42.1731 38.9129 42.8654C37.7302 43.5 35.5667 44.077 31.7879 44.077H8.33594V45.202H31.8167C36.4032 45.202 37.9609 44.7116 39.5763 43.8462C41.1917 42.9808 42.259 41.2212 42.259 38.9423C42.2879 36.4327 40.8167 34.9327 39.3456 34.0097Z" fill="white"/>
<path d="M63.4038 31.5V41.7981H69.0288C71.4519 41.7981 73.3558 41.3365 74.6827 40.4135C75.9808 39.5769 76.7308 38.1346 76.7019 36.5769C76.7019 33.2019 73.8462 31.5 68.1635 31.5H63.4038ZM63.4038 19.2404V28.4712H67.6442C69.9231 28.4712 71.6827 28.0385 72.9808 27.1442C74.25 26.3366 75 24.8942 74.9423 23.3942C74.9423 20.625 72.6923 19.2116 68.1635 19.2116L63.4038 19.2404ZM59.25 44.8269V16.2115H69.3173C72.375 16.2115 74.7981 16.8173 76.5865 18.0289C78.375 19.2404 79.2692 20.8269 79.2692 22.7596C79.2981 24.3173 78.7212 25.8462 77.6539 27C76.5577 28.2116 75.0865 29.0481 73.1827 29.5673V29.6539C75.5769 29.8846 77.4808 30.6058 78.8942 31.8462C80.3077 33.0289 81.0865 34.7885 81.0288 36.6346C81.0288 39.0865 79.9327 41.0481 77.7692 42.5769C75.6058 44.1058 72.8654 44.8558 69.5481 44.8558H59.25V44.8269Z" fill="white"/>
<path d="M85.6438 44.827H89.6823V24.4039H85.6438V44.827ZM87.6919 19.1827C87.0284 19.2116 86.365 18.9808 85.8457 18.577C85.3553 18.2308 85.0669 17.6539 85.0957 17.077C85.0957 16.4712 85.3842 15.8943 85.8457 15.5481C86.365 15.1443 87.0284 14.9135 87.6919 14.9424C88.3842 14.9135 89.0477 15.1443 89.5669 15.5481C90.4034 16.1539 90.5765 17.3077 89.9996 18.1443C89.8842 18.3174 89.74 18.4616 89.5669 18.577C89.0477 19.0097 88.3842 19.2116 87.6919 19.1827Z" fill="white"/>
<path d="M107.538 44.625C106.586 45.0576 105.317 45.2596 103.759 45.2596C99.3459 45.2596 97.1248 43.2692 97.1248 39.2596V27.173H92.7979V24.375H97.1248V19.3846L101.163 18.3173V24.375H107.509V27.173H101.163V38.6826C101.163 40.0384 101.452 41.0192 102.029 41.6249C102.606 42.2307 103.557 42.4903 104.884 42.4903C105.807 42.5192 106.731 42.2884 107.509 41.798L107.538 44.625Z" fill="white"/>
<path d="M144.259 44.8269H140.481V27.1731C140.509 25.4711 140.596 23.7404 140.798 22.0384H140.711C140.481 22.9038 140.134 23.7692 139.731 24.5769L128.625 44.798H126.75L115.673 24.7211C115.24 23.8557 114.923 22.9615 114.692 22.0096H114.606C114.75 23.7115 114.808 25.4423 114.779 27.1731V44.798H111.115V18.4904H116.163L126.144 36.8365C126.721 37.8461 127.24 38.9134 127.644 40.0096H127.788C128.452 38.5673 128.971 37.5 129.346 36.7788L139.529 18.4904H144.288V44.8269" fill="white"/>
<path d="M164.797 34.4711L158.711 35.1635C156.836 35.3654 155.422 35.7404 154.47 36.2885C153.518 36.8365 153.028 37.7885 153.028 39.1442C153.028 40.125 153.518 41.0481 154.355 41.5961C155.22 42.2308 156.403 42.5481 157.874 42.5481C159.893 42.5481 161.538 41.9711 162.836 40.8461C164.105 39.7788 164.826 38.1923 164.797 36.5192V34.4711ZM168.836 44.8269H164.797V41.625H164.711C162.951 44.0769 160.355 45.2885 156.951 45.2885C154.442 45.2885 152.48 44.7404 151.038 43.6731C149.653 42.6923 148.874 41.0769 148.903 39.375C148.903 35.5673 151.672 33.3461 157.24 32.7115L164.797 31.8461C164.797 28.3846 163.067 26.6538 159.605 26.6538C156.663 26.625 153.807 27.4904 151.384 29.1635V25.8173C153.865 24.5481 156.72 23.9135 159.951 23.9135C165.893 23.9135 168.836 26.4519 168.836 31.5288V44.8269Z" fill="white"/>
<path d="M187.586 27.6924C186.865 27.2597 185.856 27.0289 184.529 27.0289C182.856 27.0001 181.269 27.7212 180.202 29.0193C179.048 30.3462 178.471 32.1347 178.471 34.4135V44.827H174.433V24.4039H178.471V28.6155H178.558C179.077 27.2597 180 26.077 181.211 25.2405C182.365 24.4328 183.75 24.0289 185.192 24.0289C186 24.0001 186.836 24.0866 187.615 24.3174L187.586 27.6924Z" fill="white"/>
<path d="M201.663 44.625C200.711 45.0576 199.442 45.2596 197.884 45.2596C193.471 45.2596 191.25 43.2692 191.25 39.2596V27.173H186.923V24.375H191.25V19.3846L195.288 18.3173V24.375H201.634V27.173H195.288V38.6826C195.288 40.0384 195.577 41.0192 196.154 41.6249C196.731 42.2307 197.682 42.4903 199.009 42.4903C199.932 42.5192 200.856 42.2884 201.634 41.798L201.663 44.625Z" fill="white"/>
</svg>
