<svg width="416" height="157" viewBox="0 0 416 157" fill="none" xmlns="http://www.w3.org/2000/svg">
<g clip-path="url(#clip0_250_4296)">
<path d="M253.681 154.321C255.023 154.41 256.365 154.856 257.439 155.66C258.871 154.499 260.482 153.428 262.271 152.981C264.061 152.534 266.029 152.624 267.64 153.517C267.909 153.695 268.177 153.874 268.266 154.142C268.356 154.41 268.356 154.767 268.087 154.946C267.998 155.035 267.909 155.035 267.73 155.035C266.298 155.214 264.777 155.482 263.345 155.66C260.213 156.107 257.081 156.643 253.949 156.553C253.055 156.553 250.818 156.91 250.549 155.749C250.281 154.41 252.965 154.321 253.681 154.321Z" fill="white"/>
<path d="M233.458 150.212C232.474 150.212 231.49 150.212 230.595 150.659C229.7 151.016 228.895 151.909 228.895 152.802C230.416 153.16 235.516 153.606 236.411 151.731C237.306 149.766 233.905 150.212 232.563 150.57" fill="white"/>
<path d="M406.068 139.942C405.71 139.406 405.173 139.049 404.457 138.871C403.204 138.513 401.683 138.781 400.52 139.228C400.073 138.513 398.104 138.067 396.941 139.406C395.688 140.925 397.746 140.657 399.088 140.478C398.999 141.193 399.804 141.728 400.52 141.996C402.22 142.354 407.947 142.8 406.068 139.942Z" fill="white"/>
<path d="M393.988 59.3884C393.451 59.3884 393.004 60.1029 393.362 60.5494C394.078 60.728 394.794 60.9066 395.51 60.9066C395.778 60.9066 396.136 60.9066 396.404 60.728C396.941 60.2815 396.583 59.2991 395.957 59.0312C395.241 58.7633 394.525 59.0312 393.899 59.2098C394.525 59.2098 393.273 59.3884 393.988 59.3884Z" fill="white"/>
<path d="M7.87473 98.1472C8.76955 97.522 9.84333 96.9862 11.0961 96.8969C12.3488 96.7183 13.7805 96.9862 14.4964 97.6113C15.1227 98.1472 15.3912 98.9509 16.3755 99.2188C16.7334 99.3081 17.1808 99.2188 17.5387 99.2188C18.9705 99.1295 20.7601 99.3081 21.3865 100.112C21.5654 100.29 21.5654 100.558 21.4759 100.737C21.2075 101.184 20.4022 101.273 19.7758 101.273C14.6753 101.541 6.71147 102.077 1.87947 100.737C0.626724 100.38 -1.34187 99.576 1.2531 98.8616C2.14791 98.5937 3.57962 99.3974 4.56391 99.3974C6.0851 99.3081 6.80096 98.7723 7.87473 98.1472Z" fill="white"/>
<path d="M377.434 69.6586C366.965 70.6409 376.003 77.7854 381.103 72.695C381.729 72.0698 382.177 71.3554 381.998 70.4623C380.745 69.6586 379.134 69.48 377.434 69.6586Z" fill="white"/>
</g>
<defs>
<clipPath id="clip0_250_4296">
<rect width="416" height="156.553" fill="white"/>
</clipPath>
</defs>
</svg>
