<svg width="219" height="50" viewBox="0 0 219 50" fill="none" xmlns="http://www.w3.org/2000/svg">
<g clip-path="url(#clip0_250_4371)">
<path fill-rule="evenodd" clip-rule="evenodd" d="M180.602 14.8692H186.798V8.6737H180.602V14.8692ZM147.671 25.192C148.857 22.0507 151.885 19.8168 155.437 19.8168C158.988 19.8168 162.025 22.0507 163.203 25.192H147.671ZM155.437 14.0489C147.671 14.0489 141.37 20.3491 141.37 28.1152C141.37 35.8814 147.671 42.1816 155.437 42.1816C160.768 42.1816 165.402 39.2147 167.784 34.8517L162.592 32.3299C161.143 34.7819 158.482 36.4224 155.437 36.4224C151.589 36.4224 148.351 33.8046 147.409 30.2444H163.465V30.2531H169.346C169.451 29.555 169.503 28.8395 169.503 28.1152C169.503 20.3491 163.212 14.0489 155.437 14.0489ZM171.143 41.4311H177.339V35.2357H171.143V41.4311ZM180.602 41.4311H186.798V17.5917H180.602V41.4311ZM204.084 36.4224C199.494 36.4224 195.777 32.7051 195.777 28.1152C195.777 23.5254 199.494 19.8081 204.084 19.8081C208.674 19.8081 212.391 23.5254 212.391 28.1152C212.391 32.7051 208.674 36.4224 204.084 36.4224ZM204.084 14.0489C196.318 14.0489 190.018 20.3491 190.018 28.1152C190.018 35.8814 196.318 42.1816 204.084 42.1816C211.85 42.1816 218.15 35.8814 218.15 28.1152C218.15 20.3491 211.85 14.0489 204.084 14.0489ZM74.5554 22.932V29.3369H83.2203C82.7665 31.1693 81.8765 32.8098 80.5937 34.1187C78.6566 36.0995 75.9777 37.1816 73.0458 37.1816C66.955 37.1816 61.9986 32.2252 61.9986 26.1257C61.9986 20.035 66.955 15.0699 73.0458 15.0699C76.3093 15.0699 79.311 16.466 81.3878 18.8744L86.3442 14.8168C83.0545 10.9599 78.1766 8.65625 73.0458 8.65625C63.421 8.65625 55.5938 16.4922 55.5938 26.117C55.5938 35.7418 63.421 43.5777 73.0458 43.5777C77.7229 43.5777 82.0248 41.8936 85.1749 38.6737C87.8189 35.9686 89.5728 32.199 89.9044 28.4294C90.0702 26.5882 90.0876 24.7557 89.9829 22.9145L74.5554 22.932ZM106.109 36.4224C101.527 36.4224 97.8014 32.7051 97.8014 28.1152C97.8014 23.5254 101.519 19.8081 106.109 19.8081C110.698 19.8081 114.416 23.5254 114.416 28.1152C114.416 32.7051 110.698 36.4224 106.109 36.4224ZM114.416 16.7889C112.086 15.0786 109.215 14.0751 106.109 14.0751C98.3424 14.0751 92.051 20.3753 92.051 28.1414C92.051 35.9076 98.3512 42.2077 106.109 42.2077C109.215 42.2077 112.086 41.1955 114.416 39.4939V41.4398H120.175V14.843H114.416V16.7889ZM132.531 8.6737H126.772V14.8692H123.325V20.3055H126.772V34.5289C126.772 35.9948 126.955 37.2339 127.321 38.2025C127.679 39.1624 128.238 39.9128 128.892 40.4974C129.555 41.0908 130.332 41.5533 131.257 41.8238C132.199 42.0856 133.229 42.1903 134.328 42.1903C135.463 42.1903 136.475 42.0768 137.33 41.8412C138.133 41.6231 138.901 41.3177 139.608 40.9337V36.5533C138.473 37.0419 137.409 37.2252 136.196 37.2775C134.913 37.3386 134.163 36.9721 133.534 36.37C132.871 35.7418 132.522 34.9215 132.522 33.5515V20.3055H139.608V14.8692H132.522V8.6737H132.531Z" fill="white"/>
<path fill-rule="evenodd" clip-rule="evenodd" d="M24.9738 38.7349C17.3909 38.7349 11.2391 32.583 11.2391 25.0001C11.2391 17.4172 17.3909 11.2654 24.9738 11.2654V0.0175781C11.178 0.0175781 0 11.2043 0 25.0001C0 38.7959 11.178 49.9739 24.9738 49.9739C38.7609 49.9739 49.9476 38.7872 49.9476 25.0001H38.7085C38.7085 32.5917 32.5567 38.7349 24.9738 38.7349Z" fill="#2354E6"/>
<path fill-rule="evenodd" clip-rule="evenodd" d="M24.9736 25.0001H38.7084V11.2654H24.9736V25.0001Z" fill="#17E6A1"/>
</g>
<defs>
<clipPath id="clip0_250_4371">
<rect width="218.15" height="50" fill="white"/>
</clipPath>
</defs>
</svg>
