<svg width="117" height="36" viewBox="0 0 117 36" fill="none" xmlns="http://www.w3.org/2000/svg">
<path fill-rule="evenodd" clip-rule="evenodd" d="M34.4734 0.5H1.02961C0.82336 0.5 0.625547 0.581876 0.479765 0.727814C0.333827 0.873596 0.251953 1.07141 0.251953 1.27781V34.7215C0.251953 34.9278 0.333827 35.1256 0.479765 35.2714C0.625547 35.4173 0.82336 35.4992 1.02961 35.4992H34.4734C34.6798 35.4992 34.8776 35.4173 35.0234 35.2714C35.1693 35.1256 35.2512 34.9278 35.2512 34.7215V1.27781C35.2512 1.07141 35.1693 0.873596 35.0234 0.727814C34.8776 0.581876 34.6798 0.5 34.4734 0.5ZM23.5847 23.0551C23.5847 23.2613 23.5028 23.4591 23.3569 23.6051C23.2111 23.7509 23.0133 23.8329 22.8071 23.8329H12.6961C12.4898 23.8329 12.292 23.7509 12.1461 23.6051C12.0003 23.4591 11.9184 23.2613 11.9184 23.0551V12.9441C11.9184 12.7378 12.0003 12.54 12.1461 12.3943C12.292 12.2483 12.4898 12.1664 12.6961 12.1664H22.8071C23.0133 12.1664 23.2111 12.2483 23.3569 12.3943C23.5028 12.54 23.5847 12.7378 23.5847 12.9441V23.0551Z" fill="white"/>
<path d="M104.491 12.1678H94.3799C93.9504 12.1678 93.6021 12.5159 93.6021 12.9454V23.0564C93.6021 23.4859 93.9504 23.8342 94.3799 23.8342H104.491C104.92 23.8342 105.269 23.4859 105.269 23.0564V12.9454C105.269 12.5159 104.92 12.1678 104.491 12.1678Z" fill="white"/>
<path d="M82.7087 0.500854H92.8196C93.2492 0.500854 93.5974 0.84898 93.5974 1.27867V11.3895C93.5974 11.819 93.2492 12.1673 92.8196 12.1673H82.7087C82.2792 12.1673 81.9309 11.819 81.9309 11.3895V1.27867C81.9309 0.84898 82.2792 0.500854 82.7087 0.500854Z" fill="white"/>
<path d="M116.153 0.500854H106.042C105.612 0.500854 105.264 0.84898 105.264 1.27867V11.3895C105.264 11.819 105.612 12.1673 106.042 12.1673H116.153C116.583 12.1673 116.931 11.819 116.931 11.3895V1.27867C116.931 0.84898 116.583 0.500854 116.153 0.500854Z" fill="white"/>
<path d="M82.7087 23.8336H92.8196C93.2492 23.8336 93.5974 24.1817 93.5974 24.6112V34.7222C93.5974 35.1517 93.2492 35.5 92.8196 35.5H82.7087C82.2792 35.5 81.9309 35.1517 81.9309 34.7222V24.6112C81.9309 24.1817 82.2792 23.8336 82.7087 23.8336Z" fill="white"/>
<path d="M116.153 23.8336H106.042C105.612 23.8336 105.264 24.1817 105.264 24.6112V34.7222C105.264 35.1517 105.612 35.5 106.042 35.5H116.153C116.583 35.5 116.931 35.1517 116.931 34.7222V24.6112C116.931 24.1817 116.583 23.8336 116.153 23.8336Z" fill="white"/>
<path d="M65.1951 0.500854H75.3059C75.7355 0.500854 76.0837 0.84898 76.0837 1.27867V11.3895C76.0837 11.819 75.7355 12.1673 75.3059 12.1673H65.1951C64.7656 12.1673 64.4173 11.819 64.4173 11.3895V1.27867C64.4173 0.84898 64.7656 0.500854 65.1951 0.500854Z" fill="white"/>
<path d="M75.3059 23.8336H65.1951C64.7656 23.8336 64.4173 24.1817 64.4173 24.6112V34.7222C64.4173 35.1517 64.7656 35.5 65.1951 35.5H75.3059C75.7355 35.5 76.0837 35.1517 76.0837 34.7222V24.6112C76.0837 24.1817 75.7355 23.8336 75.3059 23.8336Z" fill="white"/>
<path d="M64.1891 12.3855C64.3349 12.5313 64.4169 12.7291 64.4169 12.9353V23.0463C64.4169 23.2526 64.3349 23.4504 64.1891 23.5963C64.0432 23.7421 63.8454 23.8241 63.6391 23.8241H52.7505V34.704C52.7505 34.9103 52.6685 35.1081 52.5227 35.2539C52.3767 35.3998 52.1789 35.4817 51.9727 35.4817H41.8618C41.6554 35.4817 41.4576 35.3998 41.3118 35.2539C41.1659 35.1081 41.084 34.9103 41.084 34.704V1.27781C41.084 1.07141 41.1659 0.873596 41.3118 0.727814C41.4576 0.581876 41.6554 0.5 41.8618 0.5H51.9727C52.1789 0.5 52.3767 0.581876 52.5227 0.727814C52.6685 0.873596 52.7505 1.07141 52.7505 1.27781V12.1577H63.6391C63.8454 12.1577 64.0432 12.2396 64.1891 12.3855Z" fill="white"/>
</svg>
