<svg width="210" height="60" viewBox="0 0 210 60" fill="none" xmlns="http://www.w3.org/2000/svg">
<path d="M108.175 38.5922C108.204 37.2232 109.34 36.1456 110.709 36.1747C112.077 36.2038 113.155 37.3397 113.126 38.7087C113.097 40.0485 111.99 41.1262 110.65 41.1262C109.281 41.097 108.175 39.9611 108.175 38.5922ZM138.611 18.8737V23.8834H131.068C128.534 23.8834 126.757 24.466 125.796 25.631C124.864 26.7378 124.398 28.398 124.398 30.6407C124.398 33.1456 125.155 34.9805 126.699 36.1456C127.31 36.5825 128.009 36.9029 128.738 37.0776C129.757 37.2815 130.776 37.3689 131.825 37.3398H138.611V42.3495H129.99C128.126 42.4077 126.262 42.1747 124.485 41.6213C123.087 41.1262 121.864 40.2524 120.903 39.1165C118.864 36.7281 117.815 33.6699 117.932 30.5242C117.932 26.33 119.097 23.2135 121.456 21.1747C122.417 20.33 123.582 19.7184 124.835 19.398C126.524 19.0194 128.243 18.8446 129.961 18.8737H138.611ZM153.99 18.5533C158.213 18.5533 161.359 19.8058 163.34 22.3106C165.262 24.7572 166.223 27.8155 166.107 30.932C166.252 34.2232 164.971 37.4271 162.611 39.699C160.485 41.6796 157.573 42.699 153.874 42.699C150.058 42.699 147.058 41.563 144.874 39.3203C142.864 37.2815 141.874 34.3397 141.874 30.4368C141.786 27.4368 142.806 24.5242 144.757 22.2524C146.912 19.8058 149.971 18.5825 153.99 18.5533ZM154.048 23.4465C150.262 23.4465 148.369 25.864 148.369 30.6699C148.281 32.2135 148.602 33.7572 149.301 35.1553C150.291 36.8737 152.126 37.864 154.107 37.7475C157.835 37.7475 159.699 35.3592 159.699 30.5533C159.699 25.8931 157.806 23.5339 154.048 23.4465ZM170.796 18.8737H193.951C195.553 18.8155 197.184 18.9902 198.757 19.3397C199.806 19.631 200.767 20.2135 201.524 21.0291C202.98 22.8058 203.738 25.0776 203.592 27.4077V42.3495H197.301V28.4271C197.33 27.6407 197.272 26.8543 197.155 26.0679C197.068 25.6019 196.835 25.1941 196.485 24.8737C195.67 24.1747 194.592 23.7961 193.514 23.8834H190.165V42.3495H183.874V23.8834H177.087V42.3495H170.796V18.8737ZM72.2037 30.6116L63.1163 18.5825H70.3396L75.7862 26.5922L81.6697 18.5825H88.8056L79.427 30.6116L88.8056 42.8737H81.8736L75.7862 34.5436L69.8153 42.8737H62.7959L72.2037 30.6116ZM98.0095 22.9223H87.3784L91.0775 18.5825H113.097V22.9223H103.922V42.9029H98.0386L98.0095 22.9223Z" fill="white"/>
<path d="M108.174 38.5922C108.203 37.2233 109.339 36.1456 110.708 36.1748C112.077 36.2039 113.154 37.3398 113.125 38.7087C113.096 40.0486 111.989 41.1262 110.65 41.1262C109.281 41.0971 108.174 39.9612 108.174 38.5922Z" fill="white"/>
<path d="M30.0869 52.9224C17.417 53.0098 7.07719 42.8156 6.98982 30.1748C6.90244 17.5049 17.0966 7.16509 29.7374 7.07771C42.4073 6.99033 52.7471 17.1554 52.8345 29.8253V30C52.8636 42.6117 42.6986 52.8641 30.0869 52.9224ZM30.0869 10.4855C19.3102 10.4272 10.5141 19.0777 10.4558 29.8835C10.3976 40.6602 19.0481 49.4564 29.8539 49.5146C40.6306 49.5729 49.4267 40.9224 49.485 30.1457V30C49.485 19.2525 40.8345 10.5437 30.0869 10.4855ZM30.9024 26.8544L35.3005 21.4661C35.7665 20.9127 35.6791 20.068 35.1257 19.602C34.8927 19.4272 34.6015 19.3107 34.3102 19.3107C33.9316 19.3107 33.5529 19.4855 33.3199 19.7767L29.2422 24.7573L25.1354 19.7767C24.9024 19.4855 24.5238 19.3107 24.1452 19.3107H20.7665C20.0384 19.3107 19.4558 19.9224 19.4558 20.6505C19.4558 20.9418 19.5723 21.2331 19.7471 21.4661L25.8345 28.8932L18.0869 38.3884C17.6209 38.9418 17.65 39.7573 18.2034 40.2233C18.7568 40.6894 19.5723 40.6602 20.0384 40.1068L20.0675 40.0777L27.5238 30.9612L30.9024 26.8544ZM41.0966 19.3107C40.718 19.3107 40.3393 19.4855 40.1063 19.7767L32.6791 28.8932L29.3005 33.0292L24.9024 38.4175C24.4364 38.9709 24.4947 39.7864 25.0481 40.2525C25.6015 40.7185 26.417 40.6602 26.883 40.1068L30.9607 35.1263L35.0384 40.1068C35.2714 40.3981 35.65 40.5729 36.0286 40.5729H39.4073C40.1354 40.5729 40.718 39.9903 40.718 39.2622C40.718 38.9418 40.6015 38.6505 40.3976 38.4175L34.3393 30.9903L42.0869 21.4952C42.5529 20.9127 42.4364 20.0971 41.883 19.6311C41.6791 19.4272 41.3879 19.3398 41.0966 19.3107Z" fill="white"/>
</svg>
