<svg width="1611" height="185" viewBox="0 0 1611 185" fill="none" xmlns="http://www.w3.org/2000/svg">
<g opacity="0.2">
<path d="M363.895 474.389H343.342V166.547H363.895V474.389Z" fill="white"/>
<path d="M395.068 482.154H374.515V141.084H395.068V482.154Z" fill="white"/>
<path d="M457.413 490.033H436.859V110.14H457.413V490.033Z" fill="white"/>
<path d="M488.585 468.109H468.032V166.547H488.585V468.109Z" fill="white"/>
<path d="M519.758 521.319H499.205V97.2368H519.758V521.319Z" fill="white"/>
<path d="M582.103 490.032H561.436V125.668H582.103V490.032Z" fill="white"/>
<path d="M644.448 443.56H623.78V177.509H644.448V443.56Z" fill="white"/>
<path d="M800.196 429.743H779.643V168.488H800.196V429.743Z" fill="white"/>
<path d="M987.116 429.743H966.562V168.488H987.116V429.743Z" fill="white"/>
<path d="M1018.29 429.743H997.735V98.4927H1018.29V429.743Z" fill="white"/>
<path d="M1049.46 429.743H1028.91V68.0059H1049.46V429.743Z" fill="white"/>
<path d="M1080.63 429.743H1060.08V116.876H1080.63V429.743Z" fill="white"/>
<path d="M1111.81 442.989H1091.25V177.509H1111.81V442.989Z" fill="white"/>
<path d="M1142.98 442.988H1122.43V93.3545H1142.98V442.988Z" fill="white"/>
<path d="M1174.15 442.989H1153.6V30.439H1174.15V442.989Z" fill="white"/>
<path d="M1205.32 442.989H1184.66V140.17H1205.32V442.989Z" fill="white"/>
<path d="M1267.55 442.988H1247V93.3545H1267.55V442.988Z" fill="white"/>
<path d="M1329.9 442.988H1309.35V116.876H1329.9V442.988Z" fill="white"/>
<path d="M1361.07 442.989H1340.52V30.439H1361.07V442.989Z" fill="white"/>
<path d="M1392.24 442.988H1371.69V152.274H1392.24V442.988Z" fill="white"/>
<path d="M1423.42 442.988H1402.86V100.89H1423.42V442.988Z" fill="white"/>
<path d="M1454.59 442.989H1434.04V0.522949H1454.59V442.989Z" fill="white"/>
<path d="M1516.93 442.989H1496.27V132.634H1516.93V442.989Z" fill="white"/>
<path d="M1579.16 442.989H1558.61V30.439H1579.16V442.989Z" fill="white"/>
<path d="M1610.34 442.989H1589.78V54.0752H1610.34V442.989Z" fill="white"/>
</g>
</svg>
