<svg width="51" height="53" viewBox="0 0 51 53" fill="none" xmlns="http://www.w3.org/2000/svg">
<g filter="url(#filter0_d_250_4344)">
<rect width="50" height="50" rx="12" fill="#FFDF00" shape-rendering="crispEdges"/>
<rect x="0.5" y="0.5" width="49" height="49" rx="11.5" stroke="black" shape-rendering="crispEdges"/>
<path d="M16.8045 24.3086C16.8045 24.1521 16.8355 23.997 16.8956 23.8525C16.9557 23.7079 17.0437 23.5766 17.1547 23.4662C17.2657 23.3558 17.3974 23.2683 17.5422 23.2089C17.6871 23.1495 17.8422 23.1193 17.9988 23.1201L19.979 23.1265C20.2947 23.1265 20.5975 23.2519 20.8207 23.4752C21.044 23.6984 21.1694 24.0012 21.1694 24.3169V31.8042C21.3923 31.7381 21.6786 31.6675 21.9919 31.5937C22.2095 31.5427 22.4035 31.4195 22.5423 31.2444C22.6811 31.0691 22.7566 30.8522 22.7565 30.6286V21.3409C22.7565 21.0251 22.8819 20.7223 23.1052 20.4991C23.3284 20.2758 23.6312 20.1503 23.9469 20.1502H25.931C26.2468 20.1503 26.5496 20.2758 26.7728 20.4991C26.996 20.7223 27.1215 21.0251 27.1215 21.3409V29.9608C27.1215 29.9608 27.6182 29.7598 28.1021 29.5556C28.2818 29.4795 28.4352 29.3523 28.5431 29.1896C28.651 29.027 28.7087 28.8362 28.7088 28.641V18.3649C28.7088 18.0492 28.8342 17.7464 29.0574 17.5232C29.2806 17.3 29.5833 17.1745 29.899 17.1744H31.8831C32.1988 17.1744 32.5017 17.2999 32.7248 17.5231C32.948 17.7464 33.0736 18.0491 33.0736 18.3649V26.8271C34.7937 25.5804 36.5368 24.0811 37.9202 22.2782C38.1209 22.0165 38.2538 21.7092 38.3067 21.3837C38.3597 21.0583 38.3314 20.7247 38.2243 20.4128C37.584 18.5704 36.5661 16.882 35.2358 15.4556C33.9055 14.0292 32.292 12.8962 30.4987 12.1291C28.7054 11.3621 26.7717 10.9778 24.8214 11.001C22.871 11.0241 20.947 11.4542 19.1724 12.2636C17.3978 13.0731 15.8117 14.2441 14.5157 15.7017C13.2196 17.1593 12.2421 18.8714 11.6457 20.7285C11.0493 22.5855 10.8472 24.5466 11.0523 26.4863C11.2573 28.426 11.865 30.3015 12.8365 31.9929C13.0058 32.2846 13.2547 32.522 13.5542 32.6771C13.8537 32.8323 14.1912 32.8988 14.5272 32.8688C14.9024 32.8358 15.3697 32.789 15.9253 32.7238C16.1671 32.6964 16.3904 32.5809 16.5526 32.3993C16.7148 32.218 16.8045 31.9832 16.8047 31.7398V24.3086" fill="#0A0B0D"/>
<path d="M16.8045 24.3086C16.8045 24.1521 16.8355 23.997 16.8956 23.8525C16.9557 23.7079 17.0437 23.5766 17.1547 23.4662C17.2657 23.3558 17.3974 23.2683 17.5422 23.2089C17.6871 23.1495 17.8422 23.1193 17.9988 23.1201L19.979 23.1265C20.2947 23.1265 20.5975 23.2519 20.8207 23.4752C21.044 23.6984 21.1694 24.0012 21.1694 24.3169V31.8042C21.3923 31.7381 21.6786 31.6675 21.9919 31.5937C22.2095 31.5427 22.4035 31.4195 22.5423 31.2444C22.6811 31.0691 22.7566 30.8522 22.7565 30.6286V21.3409C22.7565 21.0251 22.8819 20.7223 23.1052 20.4991C23.3284 20.2758 23.6312 20.1503 23.9469 20.1502H25.931C26.2468 20.1503 26.5496 20.2758 26.7728 20.4991C26.996 20.7223 27.1215 21.0251 27.1215 21.3409V29.9608C27.1215 29.9608 27.6182 29.7598 28.1021 29.5556C28.2818 29.4795 28.4352 29.3523 28.5431 29.1896C28.651 29.027 28.7087 28.8362 28.7088 28.641V18.3649C28.7088 18.0492 28.8342 17.7464 29.0574 17.5232C29.2806 17.3 29.5833 17.1745 29.899 17.1744H31.8831C32.1988 17.1744 32.5017 17.2999 32.7248 17.5231C32.948 17.7464 33.0736 18.0491 33.0736 18.3649V26.8271C34.7937 25.5804 36.5368 24.0811 37.9202 22.2782C38.1209 22.0165 38.2538 21.7092 38.3067 21.3837C38.3597 21.0583 38.3314 20.7247 38.2243 20.4128C37.584 18.5704 36.5661 16.882 35.2358 15.4556C33.9055 14.0292 32.292 12.8962 30.4987 12.1291C28.7054 11.3621 26.7717 10.9778 24.8214 11.001C22.871 11.0241 20.947 11.4542 19.1724 12.2636C17.3978 13.0731 15.8117 14.2441 14.5157 15.7017C13.2196 17.1593 12.2421 18.8714 11.6457 20.7285C11.0493 22.5855 10.8472 24.5466 11.0523 26.4863C11.2573 28.426 11.865 30.3015 12.8365 31.9929C13.0058 32.2846 13.2547 32.522 13.5542 32.6771C13.8537 32.8323 14.1912 32.8988 14.5272 32.8688C14.9024 32.8358 15.3697 32.789 15.9253 32.7238C16.1671 32.6964 16.3904 32.5809 16.5526 32.3993C16.7148 32.218 16.8045 31.9832 16.8047 31.7398V24.3086" stroke="white"/>
<path d="M16.7607 36.3179C18.8521 37.8394 21.3237 38.7526 23.9019 38.9565C26.4801 39.1605 29.0645 38.6472 31.3691 37.4736C33.6737 36.2998 35.6088 34.5113 36.9599 32.306C38.311 30.1008 39.0259 27.5648 39.0251 24.9785C39.0251 24.6558 39.0101 24.3365 38.9887 24.019C33.8667 31.658 24.4097 35.2294 16.7612 36.3166" fill="black"/>
</g>
<defs>
<filter id="filter0_d_250_4344" x="0" y="0" width="51" height="53" filterUnits="userSpaceOnUse" color-interpolation-filters="sRGB">
<feFlood flood-opacity="0" result="BackgroundImageFix"/>
<feColorMatrix in="SourceAlpha" type="matrix" values="0 0 0 0 0 0 0 0 0 0 0 0 0 0 0 0 0 0 127 0" result="hardAlpha"/>
<feOffset dx="1" dy="3"/>
<feComposite in2="hardAlpha" operator="out"/>
<feColorMatrix type="matrix" values="0 0 0 0 0 0 0 0 0 0 0 0 0 0 0 0 0 0 1 0"/>
<feBlend mode="normal" in2="BackgroundImageFix" result="effect1_dropShadow_250_4344"/>
<feBlend mode="normal" in="SourceGraphic" in2="effect1_dropShadow_250_4344" result="shape"/>
</filter>
</defs>
</svg>
