<svg width="51" height="53" viewBox="0 0 51 53" fill="none" xmlns="http://www.w3.org/2000/svg">
<g filter="url(#filter0_d_250_4338)">
<rect width="50" height="50" rx="12" fill="#FFDF00" shape-rendering="crispEdges"/>
<rect x="0.5" y="0.5" width="49" height="49" rx="11.5" stroke="black" shape-rendering="crispEdges"/>
<g clip-path="url(#clip0_250_4338)">
<path fill-rule="evenodd" clip-rule="evenodd" d="M27.6641 20.5428C28.6109 20.07 29.8157 19.3739 31.0219 18.4202C31.2763 18.9492 31.3041 19.4108 31.1731 19.7835C31.0802 20.0462 30.9052 20.2747 30.6752 20.4564C30.426 20.6529 30.1148 20.7959 29.7708 20.8732C29.1181 21.0204 28.3561 20.9345 27.6641 20.5428ZM27.8283 25.3877L29.0816 26.1128C26.5225 27.5493 25.8268 30.2168 25.0003 32.8149C24.174 30.2168 23.4782 27.5493 20.9192 26.1128L22.1725 25.3877C22.2938 25.3418 22.3974 25.2587 22.4686 25.1502C22.5398 25.0417 22.5748 24.9134 22.5687 24.7837C22.4539 22.3505 23.1099 21.2745 23.9947 20.5989C24.3121 20.3569 24.6585 20.2354 25.0003 20.2354C25.3422 20.2354 25.6886 20.3569 26.0061 20.5989C26.8909 21.2745 27.5469 22.3505 27.4321 24.7837C27.426 24.9134 27.461 25.0417 27.5322 25.1502C27.6034 25.2587 27.707 25.3418 27.8283 25.3877ZM25.0003 9.5C26.4491 9.53896 27.9015 9.82064 29.162 10.3686C30.0349 10.7486 30.8493 11.2505 31.5868 11.8506C31.9199 12.1216 32.1941 12.3833 32.4962 12.6846C33.311 12.7128 34.5017 11.8063 35.0545 10.958C34.1031 14.0818 29.7618 17.7707 26.7562 19.1822C26.7549 19.1817 26.7541 19.181 26.7532 19.1804C26.2138 18.7679 25.6071 18.5616 25.0003 18.5616C24.3936 18.5616 23.787 18.7679 23.2476 19.1804C23.2467 19.1809 23.2459 19.1818 23.2446 19.1822C20.2389 17.7707 15.8977 14.0818 14.9463 10.958C15.499 11.8063 16.6897 12.7128 17.5045 12.6846C17.8067 12.3834 18.0809 12.1216 18.4139 11.8506C19.1514 11.2505 19.9658 10.7486 20.8387 10.3686C22.0993 9.82064 23.5517 9.53896 25.0003 9.5ZM22.3366 20.5428C21.3899 20.07 20.185 19.3739 18.9789 18.4202C18.7245 18.9492 18.6967 19.4108 18.8276 19.7835C18.9206 20.0462 19.0956 20.2747 19.3255 20.4564C19.5748 20.6529 19.886 20.7959 20.23 20.8732C20.8826 21.0204 21.6446 20.9345 22.3366 20.5428Z" fill="black"/>
<path fill-rule="evenodd" clip-rule="evenodd" d="M32.3426 17.2517C33.0067 16.5806 33.5918 15.8377 34.0622 15.1748L34.3012 15.6252C35.0705 17.1667 35.4702 18.7019 35.4702 20.4296L35.4685 23.1713L35.483 24.5925C35.5387 28.0817 36.2925 31.6118 38 34.8424L34.4274 31.9572L31.8995 36.0656L29.2438 33.5617L25 40.4591L20.7562 33.5618L18.1006 36.0657L15.5727 31.9573L12 34.8425C13.7075 31.6119 14.4613 28.0818 14.5172 24.5926L14.5316 23.1714L14.5299 20.4297C14.5299 18.7019 14.9295 17.1667 15.699 15.6253L15.9379 15.1749C16.4083 15.8378 16.9933 16.5806 17.6575 17.2518L17.4501 17.6832C17.0472 18.5212 16.9138 19.4581 17.2277 20.3491C17.43 20.923 17.7992 21.4152 18.2753 21.7909C18.7375 22.1558 19.2845 22.4017 19.8573 22.5309C20.2303 22.615 20.6104 22.6496 20.9881 22.6378C20.8999 23.1381 20.8615 23.6569 20.859 24.1856L17.4889 26.1351L20.0895 27.5951C20.2974 27.7118 20.4952 27.8455 20.6811 27.9949C22.8252 29.9228 24.1142 35.6265 25.0001 38.4125C25.8861 35.6265 27.175 29.9228 29.3192 27.9949C29.5051 27.8455 29.7029 27.7118 29.9108 27.5951L32.5114 26.1351L29.1412 24.1856C29.1387 23.6569 29.1003 23.1381 29.0121 22.6378C29.3898 22.6496 29.7699 22.615 30.1429 22.5309C30.7157 22.4017 31.2628 22.1558 31.7249 21.7909C32.2009 21.4152 32.5702 20.923 32.7725 20.3491C33.0864 19.4581 32.9529 18.5213 32.5501 17.6832L32.3427 17.2518L32.3426 17.2517Z" fill="black"/>
</g>
</g>
<defs>
<filter id="filter0_d_250_4338" x="0" y="0" width="51" height="53" filterUnits="userSpaceOnUse" color-interpolation-filters="sRGB">
<feFlood flood-opacity="0" result="BackgroundImageFix"/>
<feColorMatrix in="SourceAlpha" type="matrix" values="0 0 0 0 0 0 0 0 0 0 0 0 0 0 0 0 0 0 127 0" result="hardAlpha"/>
<feOffset dx="1" dy="3"/>
<feComposite in2="hardAlpha" operator="out"/>
<feColorMatrix type="matrix" values="0 0 0 0 0 0 0 0 0 0 0 0 0 0 0 0 0 0 1 0"/>
<feBlend mode="normal" in2="BackgroundImageFix" result="effect1_dropShadow_250_4338"/>
<feBlend mode="normal" in="SourceGraphic" in2="effect1_dropShadow_250_4338" result="shape"/>
</filter>
<clipPath id="clip0_250_4338">
<rect width="26" height="31" fill="white" transform="translate(12 9.5)"/>
</clipPath>
</defs>
</svg>
