<svg width="68" height="158" viewBox="0 0 68 158" fill="none" xmlns="http://www.w3.org/2000/svg">
<path fill-rule="evenodd" clip-rule="evenodd" d="M63.9711 132.134C59.0506 139.815 50.0495 138.495 45.009 148.096C43.3288 151.457 42.2488 154.817 42.1288 157.097V157.697H8.52519V156.737C8.52519 153.497 7.32506 150.616 6.12494 147.616C5.28485 145.816 4.32473 143.536 3.48464 140.895C0.604336 132.495 -1.91595 119.773 2.04447 100.451H48.9695C48.9695 100.451 49.9296 103.811 50.0496 108.732C56.5303 104.892 60.1306 106.212 61.0908 106.692C67.6915 109.692 69.3717 123.854 63.9711 132.134ZM50.1696 115.693C50.0496 123.614 49.8096 132.015 48.1294 139.455C52.6899 136.815 60.9708 131.774 61.5708 122.654C62.1709 111.732 54.9701 110.892 50.1696 115.693Z" fill="url(#paint0_linear_250_4360)"/>
<path opacity="0.3" d="M37.6879 82.6887C37.6879 82.6887 26.2866 77.5281 35.8877 67.4471C45.6087 57.246 41.1683 50.4053 41.1683 50.4053C41.1683 50.4053 50.7693 58.0861 43.5685 67.4471C36.3677 76.688 37.6879 82.6887 37.6879 82.6887Z" fill="url(#paint1_linear_250_4360)"/>
<path opacity="0.3" d="M34.5679 46.2049C34.5679 46.2049 25.6869 36.4839 32.0476 20.1621C38.5283 3.84039 33.6077 0 33.6077 0C33.6077 0 46.4491 11.8812 39.4884 23.0424C32.6477 34.2036 34.5679 46.2049 34.5679 46.2049Z" fill="url(#paint2_linear_250_4360)"/>
<path opacity="0.3" fill-rule="evenodd" clip-rule="evenodd" d="M24.0071 61.5665C17.6465 77.1682 12.486 82.3287 16.9264 92.7698C16.9264 92.7698 -3.71578 84.849 8.64554 65.6469C20.8868 46.4449 9.12562 35.8838 9.12562 35.8838C9.12562 35.8838 30.2478 45.8448 24.0071 61.5665ZM9.00556 69.8474C9.00556 69.8474 5.76522 76.2081 9.00556 81.0086C12.3659 85.6891 10.3257 82.0887 11.4058 78.6083C12.4859 75.128 11.7659 66.247 9.00556 69.8474ZM22.207 56.526C21.8469 51.9655 21.0068 50.6454 19.4467 53.2856C19.4467 53.2856 19.8067 57.006 18.1266 59.7663C16.3264 62.5266 22.447 61.0864 22.207 56.526Z" fill="url(#paint3_linear_250_4360)"/>
<path opacity="0.5" fill-rule="evenodd" clip-rule="evenodd" d="M63.9708 132.134C59.0503 139.815 50.0493 138.495 45.0087 148.096C43.3286 151.457 42.2485 154.817 42.1285 157.097V157.697H8.52492V156.737C8.52492 153.497 7.3248 150.616 6.12467 147.616C5.28458 145.816 4.32446 143.536 3.48438 140.895C4.76451 141.055 6.12468 141.295 7.56484 141.616C39.4882 148.936 48.9692 100.451 48.9692 100.451C48.9692 100.451 49.9293 103.811 50.0493 108.732C56.53 104.892 60.1304 106.212 61.0905 106.692C67.6912 109.692 69.3714 123.854 63.9708 132.134ZM50.1694 115.693C50.0493 123.614 49.8093 132.015 48.1291 139.455C52.6896 136.815 60.9705 131.774 61.5706 122.654C62.1706 111.732 54.9699 110.892 50.1694 115.693Z" fill="#EF8114"/>
<defs>
<linearGradient id="paint0_linear_250_4360" x1="42.1912" y1="69.4327" x2="84.9718" y2="153.519" gradientUnits="userSpaceOnUse">
<stop stop-color="#F7C72D"/>
<stop offset="1" stop-color="#EF6C00"/>
</linearGradient>
<linearGradient id="paint1_linear_250_4360" x1="74.9591" y1="37.1031" x2="78.4973" y2="84.136" gradientUnits="userSpaceOnUse">
<stop stop-color="#E4E1F9"/>
<stop offset="0.756" stop-color="#F5F5FF"/>
</linearGradient>
<linearGradient id="paint2_linear_250_4360" x1="127.752" y1="-1.28174" x2="125.917" y2="48.6808" gradientUnits="userSpaceOnUse">
<stop stop-color="#E4E1F9"/>
<stop offset="0.841" stop-color="#F5F5FF"/>
</linearGradient>
<linearGradient id="paint3_linear_250_4360" x1="93.114" y1="18.6452" x2="96.7568" y2="83.3896" gradientUnits="userSpaceOnUse">
<stop stop-color="#E4E1F9"/>
<stop offset="0.841" stop-color="#F5F5FF"/>
</linearGradient>
</defs>
</svg>
