<svg width="1920" height="651" viewBox="0 0 1920 651" fill="none" xmlns="http://www.w3.org/2000/svg">
<g opacity="0.7">
<path d="M14.9867 570.543H12.4746V493.125H14.9867V570.543Z" fill="white"/>
<path d="M48.2143 621.926H45.8164V517.333H48.2143V621.926Z" fill="white"/>
<path d="M81.4418 637.569H79.0439V567.688H81.4418V637.569Z" fill="white"/>
<path d="M114.784 650.358H112.271V488.33H114.784V650.358Z" fill="white"/>
<path d="M148.012 580.02H145.5V473.029H148.012V580.02Z" fill="white"/>
<path d="M181.24 561.522H178.728V408.4H181.24V561.522Z" fill="white"/>
<path d="M214.468 484.904H212.07V408.4H214.468V484.904Z" fill="white"/>
<path d="M247.696 440.03H245.298V400.864H247.696V440.03Z" fill="white"/>
<path d="M281.037 479.081H278.525V361.813H281.037V479.081Z" fill="white"/>
<path d="M314.265 456.929H311.753V381.338H314.265V456.929Z" fill="white"/>
<path d="M347.493 433.064H344.98V340.46H347.493V433.064Z" fill="white"/>
<path d="M380.72 536.63H378.322V375.287H380.72V536.63Z" fill="white"/>
<path d="M414.063 513.223H411.551V440.03H413.949L414.063 513.223Z" fill="white"/>
<path d="M447.29 488.33H444.778V400.864H447.29V488.33Z" fill="white"/>
<path d="M480.518 526.468H478.006V440.03H480.518V526.468Z" fill="white"/>
<path d="M513.745 576.937H511.233V419.476H513.745V576.937Z" fill="white"/>
<path d="M546.974 498.607H544.576V440.03H546.974V498.607Z" fill="white"/>
<path d="M580.316 498.606H577.804V340.46H580.316V498.606Z" fill="white"/>
<path d="M613.543 426.556H611.031V351.537H613.543V426.556Z" fill="white"/>
<path d="M646.771 408.401H644.259V242.833H646.771V408.401Z" fill="white"/>
<path d="M679.998 328.699H677.486V257.676H679.998V328.699Z" fill="white"/>
<path d="M713.227 433.064H710.829V277.43H713.227V433.064Z" fill="white"/>
<path d="M746.569 400.864H744.057V361.813H746.569V400.864Z" fill="white"/>
<path d="M779.797 408.4H777.285V325.616H779.797V408.4Z" fill="white"/>
<path d="M813.024 378.255H810.512V212.002H813.024V378.255Z" fill="white"/>
<path d="M846.251 334.295H843.854V220.681H846.251V334.295Z" fill="white"/>
<path d="M879.48 309.173H877.082V235.981H879.48V309.173Z" fill="white"/>
<path d="M912.823 311.686H910.311V272.521H912.823V311.686Z" fill="white"/>
<path d="M946.05 342.287H943.538V242.833H946.05V342.287Z" fill="white"/>
<path d="M158.289 561.522H135.224V513.222H158.289V561.522Z" fill="white"/>
<path d="M524.022 544.737H500.957V448.136H524.022V544.737Z" fill="white"/>
<path d="M390.997 488.329H368.046V391.729H390.997V488.329Z" fill="white"/>
<path d="M723.504 388.76H700.553V292.16H723.504V388.76Z" fill="white"/>
<path d="M58.4912 601.029H35.54V541.082H58.4912V601.029Z" fill="white"/>
<path d="M923.098 298.212H900.033V286.108H923.098V298.212Z" fill="white"/>
<path d="M291.314 459.555H268.249V420.504H291.314V459.555Z" fill="white"/>
<path d="M623.82 400.864H600.755V377.913H623.82V400.864Z" fill="white"/>
<path d="M490.795 498.72H467.729V459.554H490.795V498.72Z" fill="white"/>
<path d="M424.34 495.98H401.274V456.929H424.34V495.98Z" fill="white"/>
<path d="M889.758 292.161H866.807V252.995H889.758V292.161Z" fill="white"/>
<path d="M856.529 309.173H833.578V235.981H856.529V309.173Z" fill="white"/>
<path d="M191.517 536.631H168.451V440.03H191.517V536.631Z" fill="white"/>
<path d="M125.061 609.823H101.996V513.222H125.061V609.823Z" fill="white"/>
<path d="M823.302 359.986H800.236V263.386H823.302V359.986Z" fill="white"/>
<path d="M657.048 388.761H633.982V292.16H657.048V388.761Z" fill="white"/>
<path d="M590.593 474.856H567.527V378.255H590.593V474.856Z" fill="white"/>
<path d="M257.973 426.556H235.021V414.453H257.973V426.556Z" fill="white"/>
<path d="M557.251 485.133H534.3V473.029H557.251V485.133Z" fill="white"/>
<path d="M756.846 387.39H733.78V375.287H756.846V387.39Z" fill="white"/>
<path d="M457.567 479.081H434.502V440.03H457.567V479.081Z" fill="white"/>
<path d="M25.2636 551.475H2.19824V512.423H25.2636V551.475Z" fill="white"/>
<path d="M91.7187 624.21H68.7676V585.159H91.7187V624.21Z" fill="white"/>
<path d="M357.77 420.504H334.705V381.338H357.77V420.504Z" fill="white"/>
<path d="M324.542 440.03H301.477V400.864H324.542V440.03Z" fill="white"/>
<path d="M690.276 311.686H667.325V272.521H690.276V311.686Z" fill="white"/>
<path d="M224.744 459.555H201.793V420.504H224.744V459.555Z" fill="white"/>
<path d="M790.073 381.339H767.008V342.288H790.073V381.339Z" fill="white"/>
<path d="M956.327 328.699H933.262V289.648H956.327V328.699Z" fill="white"/>
<path d="M982.018 359.644H979.62V282.113H982.018V359.644Z" fill="white"/>
<path d="M1015.25 410.913H1012.85V306.319H1015.25V410.913Z" fill="white"/>
<path d="M1048.59 426.556H1046.08V356.675H1048.59V426.556Z" fill="white"/>
<path d="M1081.82 439.459H1079.3V277.317H1081.82V439.459Z" fill="white"/>
<path d="M1115.04 369.007H1112.53V262.016H1115.04V369.007Z" fill="white"/>
<path d="M1148.27 350.623H1145.87V197.387H1148.27V350.623Z" fill="white"/>
<path d="M1181.5 274.005H1179.1V197.387H1181.5V274.005Z" fill="white"/>
<path d="M1214.84 229.017H1212.33V189.965H1214.84V229.017Z" fill="white"/>
<path d="M1248.07 268.182H1245.56V150.8H1248.07V268.182Z" fill="white"/>
<path d="M1281.3 245.915H1278.78V170.439H1281.3V245.915Z" fill="white"/>
<path d="M1314.52 222.051H1312.13V129.447H1314.52V222.051Z" fill="white"/>
<path d="M1347.75 325.617H1345.35V164.274H1347.75V325.617Z" fill="white"/>
<path d="M1381.09 302.323H1378.58V229.017H1381.09V302.323Z" fill="white"/>
<path d="M1414.32 277.317H1411.81V189.965H1414.32V277.317Z" fill="white"/>
<path d="M1447.55 315.569H1445.04V229.017H1447.55V315.569Z" fill="white"/>
<path d="M1480.78 366.038H1478.38V208.463H1480.78V366.038Z" fill="white"/>
<path d="M1514.01 287.708H1511.61V229.017H1514.01V287.708Z" fill="white"/>
<path d="M1547.35 287.707H1544.83V129.447H1547.35V287.707Z" fill="white"/>
<path d="M1580.57 215.543H1578.06V140.524H1580.57V215.543Z" fill="white"/>
<path d="M1613.8 197.387H1611.29V31.9336H1613.8V197.387Z" fill="white"/>
<path d="M1647.03 117.801H1644.63V46.6636H1647.03V117.801Z" fill="white"/>
<path d="M1680.26 222.051H1677.86V66.417H1680.26V222.051Z" fill="white"/>
<path d="M1713.6 189.965H1711.09V150.8H1713.6V189.965Z" fill="white"/>
<path d="M1746.83 197.387H1744.32V114.603H1746.83V197.387Z" fill="white"/>
<path d="M1780.06 167.242H1777.54V0.989258H1780.06V167.242Z" fill="white"/>
<path d="M1813.28 123.281H1810.89V9.66748H1813.28V123.281Z" fill="white"/>
<path d="M1846.51 98.2744H1844.11V24.9678H1846.51V98.2744Z" fill="white"/>
<path d="M1879.85 100.673H1877.34V61.6221H1879.85V100.673Z" fill="white"/>
<path d="M1913.08 131.274H1910.57V31.9336H1913.08V131.274Z" fill="white"/>
<path d="M1125.32 350.623H1102.25V302.323H1125.32V350.623Z" fill="white"/>
<path d="M1491.05 333.723H1468.1V237.123H1491.05V333.723Z" fill="white"/>
<path d="M1358.03 277.316H1335.08V180.716H1358.03V277.316Z" fill="white"/>
<path d="M1690.54 177.748H1667.58V81.1475H1690.54V177.748Z" fill="white"/>
<path d="M1025.52 390.017H1002.57V330.07H1025.52V390.017Z" fill="white"/>
<path d="M1890.13 87.1983H1867.06V75.0947H1890.13V87.1983Z" fill="white"/>
<path d="M1258.34 248.541H1235.28V209.49H1258.34V248.541Z" fill="white"/>
<path d="M1590.85 189.965H1567.79V166.899H1590.85V189.965Z" fill="white"/>
<path d="M1457.83 287.707H1434.76V248.542H1457.83V287.707Z" fill="white"/>
<path d="M1391.37 285.081H1368.31V245.916H1391.37V285.081Z" fill="white"/>
<path d="M1856.79 81.1464H1833.84V42.0952H1856.79V81.1464Z" fill="white"/>
<path d="M1823.56 98.2744H1800.61V24.9678H1823.56V98.2744Z" fill="white"/>
<path d="M1158.55 325.617H1135.6V229.017H1158.55V325.617Z" fill="white"/>
<path d="M1092.09 398.924H1069.03V302.323H1092.09V398.924Z" fill="white"/>
<path d="M1790.33 148.973H1767.27V52.3726H1790.33V148.973Z" fill="white"/>
<path d="M1624.08 177.748H1601.01V81.1475H1624.08V177.748Z" fill="white"/>
<path d="M1557.62 263.843H1534.56V167.243H1557.62V263.843Z" fill="white"/>
<path d="M1225.12 215.542H1202.05V203.438H1225.12V215.542Z" fill="white"/>
<path d="M1524.28 274.233H1501.33V262.016H1524.28V274.233Z" fill="white"/>
<path d="M1723.88 176.492H1700.81V164.274H1723.88V176.492Z" fill="white"/>
<path d="M1424.6 268.182H1401.53V229.017H1424.6V268.182Z" fill="white"/>
<path d="M992.295 340.461H969.344V301.41H992.295V340.461Z" fill="white"/>
<path d="M1058.86 413.31H1035.8V374.145H1058.86V413.31Z" fill="white"/>
<path d="M1324.8 209.49H1301.85V170.439H1324.8V209.49Z" fill="white"/>
<path d="M1291.57 229.017H1268.51V189.965H1291.57V229.017Z" fill="white"/>
<path d="M1657.31 100.673H1634.36V61.6221H1657.31V100.673Z" fill="white"/>
<path d="M1191.78 248.541H1168.82V209.49H1191.78V248.541Z" fill="white"/>
<path d="M1757.1 170.44H1734.04V131.274H1757.1V170.44Z" fill="white"/>
<path d="M1923.36 117.801H1900.29V78.6353H1923.36V117.801Z" fill="white"/>
</g>
<g opacity="0.7">
<path d="M-55.4656 523.499L-56.6074 521.558C-4.42496 492.44 58.0341 500.89 118.324 509.111C125.86 510.139 133.396 511.167 140.818 512.08C250.778 526.011 334.818 512.309 397.62 470.06C413.948 459.099 429.021 445.967 443.75 433.179C462.705 416.622 482.345 399.608 504.725 387.162C566.271 353.021 638.778 358.045 708.888 362.955C760.842 366.495 814.623 370.263 864.636 358.616C904.486 349.253 941.825 330.07 977.907 311.458C1012.85 293.531 1048.93 274.918 1087.64 265.213C1126.69 255.279 1167.8 254.708 1207.53 254.137C1234.37 253.68 1262.23 253.223 1289.17 250.026C1356.89 241.805 1421.52 215.428 1484.09 189.965C1505.9 181.173 1528.39 171.924 1550.77 163.702C1661.42 122.71 1749.91 116.658 1821.16 145.319L1820.36 147.374C1749.57 119.056 1661.65 124.994 1551.57 165.758C1529.31 174.093 1506.7 183.228 1484.89 192.134C1422.2 217.598 1357.46 243.974 1289.4 252.31C1262.34 255.507 1234.48 255.964 1207.53 256.42C1167.91 256.991 1127.03 257.562 1088.1 267.382C1049.84 277.088 1013.76 295.586 978.935 313.513C942.738 332.125 905.286 351.422 865.207 360.785C814.737 372.546 760.842 368.893 708.773 365.239C635.695 360.1 566.728 355.305 505.753 389.103C483.601 401.435 464.075 418.449 445.235 434.891C430.505 447.68 415.318 460.925 398.876 472.001C335.617 514.478 251.007 528.295 140.476 514.364C133.054 513.451 125.632 512.423 118.095 511.395C58.0341 503.288 -3.96822 494.838 -55.4656 523.499Z" fill="white"/>
<path d="M-39.4795 601.144L-40.9639 599.432C49.2421 526.239 162.514 479.652 278.069 468.233C309.469 465.15 341.67 464.465 372.842 463.78C431.19 462.524 491.48 461.268 547.773 443.912C607.72 425.528 661.615 389.332 713.912 354.277C778.198 311.115 844.768 266.469 922.071 255.964C982.018 247.742 1043.45 260.988 1102.94 273.776C1174.88 289.191 1249.21 305.177 1318.86 281.884C1367.16 265.669 1407.47 232.099 1446.52 199.671C1461.71 187.11 1477.47 173.979 1493.45 162.104C1559.56 113.004 1637.44 79.5481 1718.51 65.3892L1718.97 67.6729C1638.12 81.7176 1560.59 115.06 1494.82 163.931C1478.84 175.806 1463.19 188.823 1448.01 201.497C1408.84 234.04 1368.31 267.725 1319.55 284.053C1249.32 307.575 1174.65 291.475 1102.37 275.946C1043.22 263.271 981.904 250.14 922.414 258.133C845.681 268.638 779.34 313.17 715.168 356.218C662.757 391.273 608.634 427.583 548.458 446.081C491.823 463.552 431.305 464.808 372.842 466.064C341.784 466.749 309.584 467.434 278.297 470.517C163.199 481.935 50.384 528.294 -39.4795 601.144Z" fill="white"/>
</g>
</svg>
